<?xml version="1.0" standalone="no"?>
<!DOCTYPE svg PUBLIC "-//W3C//DTD SVG 20010904//EN"
 "http://www.w3.org/TR/2001/REC-SVG-20010904/DTD/svg10.dtd">
<svg version="1.0" xmlns="http://www.w3.org/2000/svg"
 width="360.000000pt" height="360.000000pt" viewBox="0 0 360.000000 360.000000"
 preserveAspectRatio="xMidYMid meet">
<metadata>
Created by potrace 1.14, written by Peter Selinger 2001-2017
</metadata>
<g transform="translate(0.000000,360.000000) scale(0.100000,-0.100000)"
fill="#000000" stroke="none">
<path d="M113 2183 c-54 -26 -92 -76 -95 -125 -2 -33 11 -185 18 -223 2 -11 6
-47 9 -80 3 -33 7 -76 10 -95 2 -19 7 -62 10 -95 8 -81 29 -115 93 -146 52
-25 54 -25 295 -25 224 1 245 3 288 22 25 12 55 35 67 51 22 30 26 54 47 273
4 36 8 81 10 100 9 85 17 167 19 190 5 57 -30 117 -89 152 -39 23 -44 23 -337
24 -290 0 -298 0 -345 -23z"/>
<path d="M1058 2181 c-76 -37 -89 -67 -103 -236 -6 -69 -15 -159 -19 -190 -3
-25 -11 -92 -21 -192 -2 -23 24 -85 48 -115 7 -10 34 -26 58 -36 40 -17 73
-18 339 -18 l295 1 46 27 c51 30 89 93 84 139 -2 14 -6 59 -10 100 -3 41 -8
90 -10 109 -2 19 -7 59 -10 88 -3 28 -8 76 -11 105 -3 28 -7 69 -9 89 -5 58
-34 100 -90 128 -49 25 -55 25 -292 26 -241 1 -242 1 -295 -25z"/>
<path d="M1966 2203 c-2 -2 -14 -6 -26 -8 -39 -8 -88 -48 -107 -88 -19 -43
-19 -50 -9 -157 13 -131 15 -154 20 -185 2 -16 7 -61 11 -100 3 -38 8 -90 11
-115 6 -61 32 -101 85 -130 43 -25 47 -25 294 -26 250 -1 250 -1 300 25 58 31
85 71 90 138 2 26 4 48 5 48 2 0 6 38 14 130 4 39 9 86 11 105 23 208 23 210
10 248 -15 45 -68 98 -108 107 -30 8 -594 15 -601 8z"/>
<path d="M2855 2180 c-60 -30 -82 -65 -90 -145 -3 -33 -8 -76 -10 -95 -3 -19
-8 -66 -11 -105 -4 -38 -8 -77 -9 -85 -11 -90 -19 -180 -17 -203 3 -34 29 -87
51 -105 58 -46 62 -46 374 -47 263 -1 303 1 337 16 65 29 110 97 104 159 -3
35 -14 148 -19 190 -2 19 -7 67 -10 105 -4 39 -8 81 -10 95 -2 14 -7 50 -10
80 -9 76 -31 110 -90 140 -49 25 -54 25 -295 25 -243 1 -245 1 -295 -25z"/>
</g>
</svg>
